<svg width="135" height="85" viewBox="0 0 135 85" fill="none" xmlns="http://www.w3.org/2000/svg">
<rect x="26" width="82" height="50" rx="14" fill="#87CEFA"/>
<path d="M77.0422 26.4999L62.0788 35.6533L62.0058 17.4669L77.0422 26.4999Z" fill="white"/>
<path d="M9.59063 61.25L14.0438 71.375L18.5281 61.25H24.0281L16.6375 75.7812V84H11.4656V75.7812L4.05938 61.25H9.59063ZM27.4544 75.7188V75.3906C27.4544 74.151 27.6315 73.0104 27.9856 71.9688C28.3398 70.9167 28.8606 70.0052 29.5481 69.2344C30.2356 68.4635 31.0794 67.8646 32.0794 67.4375C33.0794 67 34.2252 66.7812 35.5169 66.7812C36.8294 66.7812 37.9856 67 38.9856 67.4375C39.996 67.8646 40.845 68.4635 41.5325 69.2344C42.22 70.0052 42.7408 70.9167 43.095 71.9688C43.4492 73.0104 43.6263 74.151 43.6263 75.3906V75.7188C43.6263 76.9479 43.4492 78.0885 43.095 79.1406C42.7408 80.1823 42.22 81.0938 41.5325 81.875C40.845 82.6458 40.0013 83.2448 39.0013 83.6719C38.0013 84.099 36.8502 84.3125 35.5481 84.3125C34.2565 84.3125 33.1054 84.099 32.095 83.6719C31.0846 83.2448 30.2356 82.6458 29.5481 81.875C28.8606 81.0938 28.3398 80.1823 27.9856 79.1406C27.6315 78.0885 27.4544 76.9479 27.4544 75.7188ZM32.345 75.3906V75.7188C32.345 76.3854 32.3971 77.0104 32.5013 77.5938C32.6158 78.1771 32.7981 78.6875 33.0481 79.125C33.2981 79.5625 33.6263 79.9062 34.0325 80.1562C34.4492 80.3958 34.9544 80.5156 35.5481 80.5156C36.1419 80.5156 36.6419 80.3958 37.0481 80.1562C37.4544 79.9062 37.7825 79.5625 38.0325 79.125C38.2825 78.6875 38.4596 78.1771 38.5638 77.5938C38.6783 77.0104 38.7356 76.3854 38.7356 75.7188V75.3906C38.7356 74.7344 38.6783 74.1198 38.5638 73.5469C38.4596 72.9635 38.2825 72.4479 38.0325 72C37.7825 71.5521 37.4492 71.2031 37.0325 70.9531C36.6263 70.7031 36.121 70.5781 35.5169 70.5781C34.9335 70.5781 34.4388 70.7031 34.0325 70.9531C33.6263 71.2031 33.2981 71.5521 33.0481 72C32.7981 72.4479 32.6158 72.9635 32.5013 73.5469C32.3971 74.1198 32.345 74.7344 32.345 75.3906ZM59.6306 79.9219V67.0938H64.5369V84H59.9431L59.6306 79.9219ZM60.1463 76.4688L61.49 76.4375C61.49 77.5729 61.3546 78.6198 61.0838 79.5781C60.8233 80.5365 60.4275 81.3698 59.8963 82.0781C59.3754 82.7865 58.7244 83.3385 57.9431 83.7344C57.1723 84.1198 56.2713 84.3125 55.24 84.3125C54.4067 84.3125 53.641 84.1979 52.9431 83.9688C52.2556 83.7292 51.6619 83.3594 51.1619 82.8594C50.6619 82.349 50.2765 81.6979 50.0056 80.9062C49.7348 80.1042 49.5994 79.1458 49.5994 78.0312V67.0938H54.4744V78.0625C54.4744 78.5 54.5265 78.875 54.6306 79.1875C54.7452 79.4896 54.8963 79.7396 55.0838 79.9375C55.2817 80.1354 55.5213 80.2812 55.8025 80.375C56.0942 80.4688 56.4119 80.5156 56.7556 80.5156C57.6202 80.5156 58.2973 80.3385 58.7869 79.9844C59.2869 79.6198 59.6358 79.1354 59.8338 78.5312C60.0421 77.9167 60.1463 77.2292 60.1463 76.4688ZM78.6819 84H73.6819L73.7131 80.0625H78.6819C79.8173 80.0625 80.7756 79.8021 81.5569 79.2812C82.3381 78.75 82.9319 77.9688 83.3381 76.9375C83.7444 75.8958 83.9475 74.6302 83.9475 73.1406V72.0938C83.9475 70.9688 83.8329 69.9792 83.6037 69.125C83.3746 68.2604 83.036 67.5365 82.5881 66.9531C82.1402 66.3698 81.5829 65.9323 80.9162 65.6406C80.26 65.349 79.5048 65.2031 78.6506 65.2031H73.5881V61.25H78.6506C80.1923 61.25 81.5985 61.5104 82.8694 62.0312C84.1506 62.5521 85.2548 63.2969 86.1819 64.2656C87.1194 65.2344 87.8433 66.3802 88.3537 67.7031C88.8642 69.026 89.1194 70.5 89.1194 72.125V73.1406C89.1194 74.7552 88.8642 76.2292 88.3537 77.5625C87.8433 78.8854 87.1194 80.0312 86.1819 81C85.2548 81.9583 84.1558 82.6979 82.885 83.2188C81.6142 83.7396 80.2131 84 78.6819 84ZM76.5725 61.25V84H71.4787V61.25H76.5725ZM103.467 84.3125C102.124 84.3125 100.921 84.099 99.8581 83.6719C98.7956 83.2448 97.8946 82.6562 97.155 81.9062C96.4258 81.1458 95.8685 80.2708 95.4831 79.2812C95.0977 78.2917 94.905 77.2344 94.905 76.1094V75.5156C94.905 74.2552 95.0821 73.0938 95.4362 72.0312C95.7904 70.9688 96.306 70.0469 96.9831 69.2656C97.6706 68.474 98.5144 67.8646 99.5144 67.4375C100.514 67 101.655 66.7812 102.936 66.7812C104.134 66.7812 105.202 66.9792 106.139 67.375C107.077 67.7604 107.869 68.3177 108.514 69.0469C109.16 69.7656 109.65 70.6354 109.983 71.6562C110.327 72.6667 110.499 73.8021 110.499 75.0625V77.0625H96.8737V73.9219H105.717V73.5469C105.717 72.9531 105.608 72.4323 105.389 71.9844C105.181 71.5365 104.869 71.1927 104.452 70.9531C104.046 70.7031 103.53 70.5781 102.905 70.5781C102.311 70.5781 101.816 70.7031 101.421 70.9531C101.025 71.2031 100.707 71.5573 100.467 72.0156C100.238 72.4635 100.072 72.9896 99.9675 73.5938C99.8633 74.1875 99.8112 74.8281 99.8112 75.5156V76.1094C99.8112 76.7656 99.8998 77.3646 100.077 77.9062C100.254 78.4479 100.514 78.9115 100.858 79.2969C101.202 79.6823 101.619 79.9844 102.108 80.2031C102.598 80.4219 103.155 80.5312 103.78 80.5312C104.551 80.5312 105.285 80.3854 105.983 80.0938C106.681 79.7917 107.285 79.3229 107.796 78.6875L110.077 81.2969C109.733 81.7969 109.249 82.2812 108.624 82.75C108.009 83.2083 107.27 83.5833 106.405 83.875C105.54 84.1667 104.561 84.3125 103.467 84.3125ZM122.097 80.5469L125.628 67.0938H130.753L125.144 84H122.066L122.097 80.5469ZM119.816 67.0938L123.331 80.5625L123.363 84H120.284L114.675 67.0938H119.816Z" fill="#87CEFA"/>
</svg>
